<svg width="375" height="44" viewBox="0 0 375 44" fill="none" xmlns="http://www.w3.org/2000/svg">
<path opacity="0.4" fill-rule="evenodd" clip-rule="evenodd" d="M338.667 18.3333H355.333C356.254 18.3333 357 19.0794 357 19.9999V25.9999C357 26.9204 356.254 27.6666 355.333 27.6666H338.667C337.746 27.6666 337 26.9204 337 25.9999V19.9999C337 19.0794 337.746 18.3333 338.667 18.3333ZM336 19.9999C336 18.5272 337.194 17.3333 338.667 17.3333H355.333C356.806 17.3333 358 18.5272 358 19.9999V25.9999C358 27.4727 356.806 28.6666 355.333 28.6666H338.667C337.194 28.6666 336 27.4727 336 25.9999V19.9999ZM360.328 22.9999C360.328 23.8731 359.805 24.6611 359 24.9999V20.9999C359.805 21.3387 360.328 22.1268 360.328 22.9999Z" fill="black"/>
<rect x="338" y="19.3333" width="18" height="7.33333" rx="1.33333" fill="black"/>
<path fill-rule="evenodd" clip-rule="evenodd" d="M323.33 19.6079C325.546 19.608 327.677 20.4594 329.283 21.9862C329.404 22.1041 329.598 22.1026 329.717 21.9829L330.873 20.8162C330.933 20.7555 330.967 20.6733 330.966 20.5877C330.966 20.5021 330.931 20.4202 330.87 20.3602C326.655 16.3207 320.005 16.3207 315.79 20.3602C315.729 20.4202 315.694 20.502 315.694 20.5876C315.693 20.6732 315.727 20.7555 315.787 20.8162L316.943 21.9829C317.062 22.1028 317.256 22.1043 317.377 21.9862C318.983 20.4593 321.114 19.6079 323.33 19.6079ZM323.33 23.4036C324.548 23.4035 325.722 23.856 326.624 24.6732C326.746 24.7892 326.939 24.7867 327.058 24.6676L328.212 23.5009C328.273 23.4397 328.307 23.3567 328.306 23.2704C328.305 23.1842 328.27 23.1018 328.208 23.0419C325.459 20.4855 321.204 20.4855 318.455 23.0419C318.393 23.1018 318.358 23.1842 318.357 23.2705C318.356 23.3568 318.39 23.4398 318.451 23.5009L319.605 24.6676C319.724 24.7867 319.917 24.7892 320.039 24.6732C320.941 23.8566 322.114 23.4041 323.33 23.4036ZM325.643 25.9574C325.645 26.0439 325.611 26.1273 325.549 26.1879L323.552 28.2036C323.493 28.2628 323.414 28.2961 323.33 28.2961C323.247 28.2961 323.167 28.2628 323.109 28.2036L321.111 26.1879C321.049 26.1272 321.015 26.0438 321.017 25.9573C321.019 25.8708 321.056 25.7889 321.121 25.7309C322.396 24.652 324.264 24.652 325.54 25.7309C325.604 25.7889 325.642 25.8709 325.643 25.9574Z" fill="black"/>
<path fill-rule="evenodd" clip-rule="evenodd" d="M309.667 17.6667H308.667C308.114 17.6667 307.667 18.1145 307.667 18.6667V27.3334C307.667 27.8857 308.114 28.3334 308.667 28.3334H309.667C310.219 28.3334 310.667 27.8857 310.667 27.3334V18.6667C310.667 18.1145 310.219 17.6667 309.667 17.6667ZM304 20.0001H305C305.552 20.0001 306 20.4478 306 21.0001V27.3334C306 27.8857 305.552 28.3334 305 28.3334H304C303.448 28.3334 303 27.8857 303 27.3334V21.0001C303 20.4478 303.448 20.0001 304 20.0001ZM300.333 22.3334H299.333C298.781 22.3334 298.333 22.7811 298.333 23.3334V27.3334C298.333 27.8857 298.781 28.3334 299.333 28.3334H300.333C300.886 28.3334 301.333 27.8857 301.333 27.3334V23.3334C301.333 22.7811 300.886 22.3334 300.333 22.3334ZM295.667 24.3334H294.667C294.114 24.3334 293.667 24.7811 293.667 25.3334V27.3334C293.667 27.8857 294.114 28.3334 294.667 28.3334H295.667C296.219 28.3334 296.667 27.8857 296.667 27.3334V25.3334C296.667 24.7811 296.219 24.3334 295.667 24.3334Z" fill="black"/>
<path d="M37.8585 29.2393C40.3673 29.2393 41.8575 27.2773 41.8575 23.9482C41.8575 20.6807 40.2716 18.8896 37.9132 18.8896C35.7667 18.8896 34.2491 20.332 34.2491 22.3486C34.2491 24.2422 35.6163 25.623 37.4962 25.623C38.6514 25.623 39.588 25.0898 40.0528 24.1533H40.169C40.1485 26.4707 39.3214 27.7969 37.879 27.7969C37.0313 27.7969 36.3546 27.332 36.1427 26.5801H34.3858C34.6729 28.1865 36.0538 29.2393 37.8585 29.2393ZM37.92 24.2627C36.7716 24.2627 35.9786 23.4561 35.9786 22.2939C35.9786 21.1797 36.8126 20.3252 37.9268 20.3252C39.0411 20.3252 39.8751 21.1934 39.8751 22.3281C39.8751 23.4492 39.0616 24.2627 37.92 24.2627ZM44.6742 22.6152C45.3236 22.6152 45.7679 22.1641 45.7679 21.5557C45.7679 20.9473 45.3236 20.4961 44.6742 20.4961C44.0316 20.4961 43.5804 20.9473 43.5804 21.5557C43.5804 22.1641 44.0316 22.6152 44.6742 22.6152ZM44.6742 27.6328C45.3236 27.6328 45.7679 27.1748 45.7679 26.5732C45.7679 25.9648 45.3236 25.5137 44.6742 25.5137C44.0316 25.5137 43.5804 25.9648 43.5804 26.5732C43.5804 27.1748 44.0316 27.6328 44.6742 27.6328ZM52.3034 29H53.9918V27.1064H55.3248V25.6504H53.9918V19.1357H51.5036C50.1637 21.1729 48.7623 23.4424 47.484 25.6641V27.1064H52.3034V29ZM49.1178 25.5889C50.0817 23.9141 51.2233 22.0889 52.235 20.5439H52.3307V25.6914H49.1178V25.5889ZM59.0849 29H60.8486V19.1357H59.0917L56.5146 20.9473V22.6084L58.9687 20.8721H59.0849V29Z" fill="black"/>
</svg>
