<svg width="209" height="119" viewBox="0 0 209 119" fill="none" xmlns="http://www.w3.org/2000/svg">
<path d="M0.55 115.834V116.593H9.559V115.834H0.55ZM4.576 113.26V116.043H5.489V113.26H4.576ZM1.595 108.739V113.425H8.459V108.739H1.595ZM7.579 109.476V112.688H2.486V109.476H7.579ZM11.9011 111.61V112.358H18.5451V111.61H11.9011ZM10.6581 113.645V114.404H19.6781V113.645H10.6581ZM14.6841 114.063V117.825H15.5861V114.063H14.6841ZM11.9011 108.497V111.973H12.8251V109.245H18.4131V108.497H11.9011ZM23.882 112.809V113.557H32.869V112.809H23.882ZM27.919 111.214V113.117H28.821V111.214H27.919ZM25.015 110.928V111.676H31.824V110.928H25.015ZM25.015 108.365V111.368H25.917V109.102H31.747V108.365H25.015ZM28.359 114.272C26.236 114.272 24.949 114.921 24.949 116.054C24.949 117.209 26.236 117.847 28.359 117.847C30.482 117.847 31.769 117.209 31.769 116.054C31.769 114.921 30.482 114.272 28.359 114.272ZM28.359 114.976C29.921 114.976 30.845 115.372 30.845 116.054C30.845 116.747 29.921 117.132 28.359 117.132C26.808 117.132 25.873 116.747 25.873 116.054C25.873 115.372 26.808 114.976 28.359 114.976ZM37.2242 108.629C35.6732 108.629 34.5512 109.586 34.5512 110.972C34.5512 112.369 35.6732 113.326 37.2242 113.326C38.7752 113.326 39.8862 112.369 39.8862 110.972C39.8862 109.586 38.7752 108.629 37.2242 108.629ZM37.2242 109.421C38.2472 109.421 38.9952 110.048 38.9952 110.972C38.9952 111.896 38.2472 112.534 37.2242 112.534C36.1902 112.534 35.4422 111.896 35.4422 110.972C35.4422 110.048 36.1902 109.421 37.2242 109.421ZM41.1842 107.903V117.869H42.0972V107.903H41.1842ZM34.1772 115.691C35.9482 115.691 38.3792 115.68 40.6122 115.251L40.5352 114.58C38.3682 114.921 35.8602 114.932 34.0452 114.932L34.1772 115.691ZM50.8523 107.914V117.858H51.7653V107.914H50.8523ZM51.5453 111.995V112.765H53.3933V111.995H51.5453ZM44.0653 109.498V110.246H49.9283V109.498H44.0653ZM47.0353 111.071C45.6383 111.071 44.6153 112.017 44.6153 113.359C44.6153 114.701 45.6383 115.647 47.0353 115.647C48.4433 115.647 49.4553 114.701 49.4553 113.359C49.4553 112.017 48.4433 111.071 47.0353 111.071ZM47.0353 111.83C47.9373 111.83 48.5863 112.457 48.5863 113.359C48.5863 114.25 47.9373 114.888 47.0353 114.888C46.1333 114.888 45.4843 114.25 45.4843 113.359C45.4843 112.457 46.1333 111.83 47.0353 111.83ZM46.5623 108.035V109.839H47.4753V108.035H46.5623ZM61.4995 107.903V117.869H62.4235V107.903H61.4995ZM59.3545 110.07V110.829H61.9945V110.07H59.3545ZM59.3545 112.545V113.315H61.9945V112.545H59.3545ZM56.8025 108.772V110.543C56.8025 112.391 55.6805 114.305 54.2175 115.031L54.8005 115.757C56.3735 114.91 57.5395 112.776 57.5395 110.543V108.772H56.8025ZM56.9785 108.772V110.543C56.9785 112.732 58.1335 114.789 59.7285 115.614L60.2785 114.877C58.8375 114.195 57.7155 112.369 57.7155 110.543V108.772H56.9785ZM66.9986 108.673C65.5356 108.673 64.5016 110.026 64.5016 112.138C64.5016 114.261 65.5356 115.614 66.9986 115.614C68.4616 115.614 69.4956 114.261 69.4956 112.138C69.4956 110.026 68.4616 108.673 66.9986 108.673ZM66.9986 109.498C67.9556 109.498 68.6266 110.532 68.6266 112.138C68.6266 113.755 67.9556 114.811 66.9986 114.811C66.0306 114.811 65.3706 113.755 65.3706 112.138C65.3706 110.532 66.0306 109.498 66.9986 109.498ZM71.7506 110.411V111.181H73.5766V110.411H71.7506ZM71.7506 113.37V114.14H73.5766V113.37H71.7506ZM71.0796 107.914V117.858H72.0036V107.914H71.0796ZM84.3695 107.914V113.689H85.2825V107.914H84.3695ZM84.8865 110.444V111.214H86.7565V110.444H84.8865ZM79.0345 114.129V117.726H85.2825V114.129H84.3805V115.185H79.9255V114.129H79.0345ZM79.9255 115.889H84.3805V116.989H79.9255V115.889ZM77.5935 108.926V109.674H83.4675V108.926H77.5935ZM80.5305 110.125C79.1005 110.125 78.1435 110.818 78.1435 111.874C78.1435 112.93 79.1005 113.623 80.5305 113.623C81.9495 113.623 82.9065 112.93 82.9065 111.874C82.9065 110.818 81.9495 110.125 80.5305 110.125ZM80.5305 110.818C81.4215 110.818 82.0375 111.236 82.0375 111.874C82.0375 112.512 81.4215 112.93 80.5305 112.93C79.6175 112.93 79.0125 112.512 79.0125 111.874C79.0125 111.236 79.6175 110.818 80.5305 110.818ZM80.0685 107.815V109.333H80.9815V107.815H80.0685ZM94.9176 107.914V117.858H95.8306V107.914H94.9176ZM88.3176 108.882V115.042H89.2196V108.882H88.3176ZM88.3176 114.503V115.295H89.1316C90.7046 115.295 92.2776 115.174 94.0046 114.822L93.8946 114.041C92.2116 114.393 90.6386 114.503 89.1316 114.503H88.3176ZM104.531 107.903V117.869H105.455V107.903H104.531ZM105.235 111.83V112.6H107.083V111.83H105.235ZM98.2278 114.624V115.394H99.0088C100.879 115.394 102.188 115.339 103.717 115.053L103.618 114.283C102.133 114.558 100.846 114.624 99.0088 114.624H98.2278ZM98.2278 108.871V114.965H99.1298V109.619H102.848V108.871H98.2278ZM108.895 117.063C108.702 117.063 108.536 116.993 108.398 116.855C108.26 116.717 108.191 116.552 108.191 116.359C108.191 116.167 108.26 116.001 108.398 115.863C108.536 115.725 108.702 115.656 108.895 115.656C109.087 115.656 109.253 115.725 109.391 115.863C109.529 116.001 109.598 116.167 109.598 116.359C109.598 116.487 109.565 116.604 109.5 116.711C109.438 116.818 109.353 116.904 109.246 116.969C109.142 117.031 109.025 117.063 108.895 117.063Z" fill="#8460DA"/>
<path d="M62.14 86.592C60.532 86.592 59.38 87.492 59.38 88.824C59.38 90.144 60.532 91.068 62.14 91.068C63.76 91.068 64.912 90.144 64.912 88.824C64.912 87.492 63.76 86.592 62.14 86.592ZM62.14 87.42C63.196 87.42 63.952 87.996 63.952 88.824C63.952 89.664 63.196 90.228 62.14 90.228C61.084 90.228 60.328 89.664 60.328 88.824C60.328 87.996 61.084 87.42 62.14 87.42ZM61.696 92.268V96.6H62.692V92.268H61.696ZM66.496 86.088V96.948H67.48V86.088H66.496ZM58.708 92.808C60.688 92.808 63.352 92.772 65.8 92.328L65.728 91.584C63.34 91.944 60.592 91.968 58.576 91.968L58.708 92.808ZM77.5231 86.088V96.936H78.5191V86.088H77.5231ZM72.6391 88.668V89.592C72.6391 91.488 71.4391 93.336 69.8311 94.08L70.3951 94.848C72.1351 94.008 73.4431 91.908 73.4431 89.592V88.668H72.6391ZM72.8311 88.668V89.592C72.8311 91.836 74.1631 93.864 75.9151 94.656L76.4791 93.876C74.8591 93.168 73.6231 91.404 73.6231 89.592V88.668H72.8311ZM70.1311 87.972V88.776H76.1071V87.972H70.1311ZM72.6391 86.28V88.416H73.6351V86.28H72.6391ZM88.5741 86.088V96.936H89.5701V86.088H88.5741ZM85.3941 87.252V87.42C85.3941 90.3 83.9421 92.604 80.8101 94.116L81.3381 94.92C84.9621 93.144 86.3781 90.396 86.3781 87.252H85.3941ZM81.3021 87.252V88.068H85.8261V87.252H81.3021ZM99.1332 86.1V94.056H100.129V86.1H99.1332ZM99.8172 89.376V90.204H101.737V89.376H99.8172ZM93.3732 95.88V96.696H100.621V95.88H93.3732ZM93.3732 93.288V96.072H94.3692V93.288H93.3732ZM92.1612 86.868V92.244H97.1772V86.868H96.2052V88.68H93.1452V86.868H92.1612ZM93.1452 89.46H96.2052V91.44H93.1452V89.46ZM108.168 89.76V90.576H111.192V89.76H108.168ZM105.552 87.024V88.956C105.552 90.972 104.328 93.06 102.732 93.852L103.368 94.644C105.084 93.72 106.368 91.392 106.368 88.956V87.024H105.552ZM105.744 87.024V88.956C105.744 91.332 107.004 93.564 108.756 94.452L109.344 93.648C107.772 92.904 106.548 90.936 106.548 88.956V87.024H105.744ZM110.7 86.076V96.948H111.684V86.076H110.7ZM121.667 86.076V96.948H122.663V86.076H121.667ZM114.407 87V94.332H119.519V87H118.523V89.868H115.391V87H114.407ZM115.391 90.66H118.523V93.516H115.391V90.66ZM129.178 86.832V87.66C129.178 89.508 127.138 91.164 125.23 91.524L125.674 92.352C127.846 91.86 130.042 90.024 130.042 87.66V86.832H129.178ZM129.358 86.832V87.66C129.358 90.036 131.566 91.86 133.726 92.352L134.17 91.524C132.274 91.164 130.222 89.52 130.222 87.66V86.832H129.358ZM124.834 94.656V95.472H134.662V94.656H124.834ZM147.12 86.076V96.948H148.116V86.076H147.12ZM142.392 86.916C140.796 86.916 139.644 88.392 139.644 90.696C139.644 93.012 140.796 94.488 142.392 94.488C144 94.488 145.152 93.012 145.152 90.696C145.152 88.392 144 86.916 142.392 86.916ZM142.392 87.816C143.46 87.816 144.192 88.944 144.192 90.696C144.192 92.46 143.46 93.612 142.392 93.612C141.336 93.612 140.592 92.46 140.592 90.696C140.592 88.944 141.336 87.816 142.392 87.816ZM152.7 89.76V91.812H153.684V89.76H152.7ZM156.684 89.76V91.812H157.668V89.76H156.684ZM150.276 91.452V92.256H160.08V91.452H150.276ZM155.172 93.072C152.844 93.072 151.451 93.756 151.451 94.992C151.451 96.228 152.844 96.924 155.172 96.924C157.5 96.924 158.892 96.228 158.892 94.992C158.892 93.756 157.5 93.072 155.172 93.072ZM155.172 93.84C156.876 93.84 157.884 94.26 157.884 94.992C157.884 95.736 156.876 96.144 155.172 96.144C153.48 96.144 152.46 95.736 152.46 94.992C152.46 94.26 153.48 93.84 155.172 93.84ZM155.184 86.28C152.82 86.28 151.368 87.036 151.368 88.308C151.368 89.568 152.82 90.312 155.184 90.312C157.536 90.312 159 89.568 159 88.308C159 87.036 157.536 86.28 155.184 86.28ZM155.184 87.06C156.912 87.06 157.98 87.516 157.98 88.308C157.98 89.088 156.912 89.544 155.184 89.544C153.456 89.544 152.388 89.088 152.388 88.308C152.388 87.516 153.456 87.06 155.184 87.06ZM169.439 87.732V88.572H171.323V87.732H169.439ZM169.439 90.06V90.888H171.323V90.06H169.439ZM168.743 86.088V92.532H169.739V86.088H168.743ZM162.695 93.048V93.852H168.743V96.936H169.739V93.048H162.695ZM164.351 86.724C162.719 86.724 161.519 87.78 161.519 89.304C161.519 90.816 162.719 91.86 164.351 91.86C165.983 91.86 167.183 90.816 167.183 89.304C167.183 87.78 165.983 86.724 164.351 86.724ZM164.351 87.576C165.431 87.576 166.211 88.272 166.211 89.304C166.211 90.324 165.431 91.032 164.351 91.032C163.271 91.032 162.491 90.324 162.491 89.304C162.491 88.272 163.271 87.576 164.351 87.576ZM172.942 86.928V87.744H177.742V86.928H172.942ZM174.574 89.352V92.064H175.558V89.352H174.574ZM177.346 86.928V87.504C177.346 88.2 177.346 89.184 177.07 90.612L178.042 90.72C178.33 89.292 178.33 88.212 178.33 87.504V86.928H177.346ZM179.806 86.088V94.26H180.802V86.088H179.806ZM180.346 89.616V90.444H182.35V89.616H180.346ZM173.95 95.88V96.696H181.15V95.88H173.95ZM173.95 93.504V96.132H174.934V93.504H173.95ZM172.39 92.532C174.298 92.532 176.89 92.484 179.146 92.088L179.074 91.368C176.878 91.668 174.214 91.716 172.282 91.716L172.39 92.532ZM186.78 91.428V92.244H196.584V91.428H186.78ZM191.184 89.688V91.764H192.168V89.688H191.184ZM188.016 89.376V90.192H195.444V89.376H188.016ZM188.016 86.58V89.856H189V87.384H195.36V86.58H188.016ZM191.664 93.024C189.348 93.024 187.944 93.732 187.944 94.968C187.944 96.228 189.348 96.924 191.664 96.924C193.98 96.924 195.384 96.228 195.384 94.968C195.384 93.732 193.98 93.024 191.664 93.024ZM191.664 93.792C193.368 93.792 194.376 94.224 194.376 94.968C194.376 95.724 193.368 96.144 191.664 96.144C189.972 96.144 188.952 95.724 188.952 94.968C188.952 94.224 189.972 93.792 191.664 93.792ZM201.335 86.868C199.643 86.868 198.419 87.912 198.419 89.424C198.419 90.948 199.643 91.992 201.335 91.992C203.027 91.992 204.239 90.948 204.239 89.424C204.239 87.912 203.027 86.868 201.335 86.868ZM201.335 87.732C202.451 87.732 203.267 88.416 203.267 89.424C203.267 90.432 202.451 91.128 201.335 91.128C200.207 91.128 199.391 90.432 199.391 89.424C199.391 88.416 200.207 87.732 201.335 87.732ZM205.655 86.076V96.948H206.651V86.076H205.655ZM198.011 94.572C199.943 94.572 202.595 94.56 205.031 94.092L204.947 93.36C202.583 93.732 199.847 93.744 197.867 93.744L198.011 94.572Z" fill="#8B8B8B"/>
<path d="M59.164 68.024V73.076H64.216V68.024H59.164ZM63.256 68.828V72.272H60.124V68.828H63.256ZM66.484 67.1V74.888H67.492V67.1H66.484ZM60.52 76.76V77.588H67.816V76.76H60.52ZM60.52 74.144V77.096H61.504V74.144H60.52ZM77.0551 67.088V73.232H78.0511V67.088H77.0551ZM77.7751 69.728V70.556H79.6591V69.728H77.7751ZM74.0551 67.784V68.228C74.0551 70.22 72.4351 71.792 69.6271 72.56L70.0111 73.352C73.2031 72.488 75.1111 70.52 75.1111 67.784H74.0551ZM70.0951 67.784V68.588H74.6071V67.784H70.0951ZM71.2231 73.748V77.792H78.0511V73.748H71.2231ZM77.0671 74.552V76.976H72.2071V74.552H77.0671ZM86.4621 69.896V70.724H88.9101V69.896H86.4621ZM88.5981 67.088V73.556H89.5941V67.088H88.5981ZM86.0301 73.88C83.7861 73.88 82.4061 74.636 82.4061 75.908C82.4061 77.192 83.7861 77.924 86.0301 77.924C88.2621 77.924 89.6421 77.192 89.6421 75.908C89.6421 74.636 88.2621 73.88 86.0301 73.88ZM86.0301 74.66C87.6621 74.66 88.6581 75.116 88.6581 75.908C88.6581 76.688 87.6621 77.144 86.0301 77.144C84.3981 77.144 83.4021 76.688 83.4021 75.908C83.4021 75.116 84.3981 74.66 86.0301 74.66ZM83.4381 68.18V69.056C83.4381 70.616 82.3221 72.068 80.7141 72.656L81.2301 73.448C83.0301 72.776 84.2541 71.06 84.2541 69.056V68.18H83.4381ZM83.6301 68.18V69.056C83.6301 70.88 84.7941 72.512 86.5581 73.148L87.0621 72.356C85.4901 71.804 84.4341 70.46 84.4341 69.056V68.18H83.6301ZM81.0141 67.88V68.696H86.8101V67.88H81.0141ZM91.7172 75.728V76.556H101.545V75.728H91.7172ZM96.1092 73.136V75.968H97.1052V73.136H96.1092ZM92.8692 67.856V73.4H100.369V67.856H99.3852V69.788H93.8532V67.856H92.8692ZM93.8532 70.592H99.3852V72.584H93.8532V70.592ZM110.511 67.472V68.072C110.511 69.62 108.603 70.916 106.623 71.216L107.019 72.02C109.275 71.636 111.387 70.148 111.387 68.072V67.472H110.511ZM110.691 67.472V68.072C110.691 70.124 112.815 71.636 115.047 72.02L115.443 71.216C113.487 70.916 111.555 69.584 111.555 68.072V67.472H110.691ZM110.511 73.808V77.936H111.495V73.808H110.511ZM106.131 73.196V74.024H115.935V73.196H106.131ZM120.05 68.024V68.852C120.05 70.328 118.934 71.672 117.302 72.2L117.806 72.992C119.63 72.368 120.878 70.76 120.878 68.852V68.024H120.05ZM120.242 68.024V68.852C120.242 70.688 121.514 72.212 123.314 72.8L123.806 72.02C122.21 71.516 121.07 70.256 121.07 68.852V68.024H120.242ZM117.578 67.796V68.6H123.518V67.796H117.578ZM125.054 67.088V72.956H126.062V67.088H125.054ZM119.066 73.496V77.792H126.062V73.496H125.078V74.78H120.05V73.496H119.066ZM120.05 75.584H125.078V76.976H120.05V75.584ZM132.148 67.784V72.224H137.2V67.784H132.148ZM136.24 68.588V71.432H133.108V68.588H136.24ZM139.468 67.088V73.316H140.464V67.088H139.468ZM136.528 74.6V74.804C136.528 75.884 134.8 76.916 132.916 77.132L133.252 77.9C135.448 77.612 137.38 76.364 137.38 74.804V74.6H136.528ZM136.672 74.6V74.804C136.672 76.328 138.556 77.6 140.764 77.9L141.1 77.132C139.216 76.904 137.536 75.848 137.536 74.804V74.6H136.672ZM133.348 74.048V74.828H140.716V74.048H133.348ZM136.528 73.004V74.396H137.536V73.004H136.528ZM153.87 67.076V77.948H154.866V67.076H153.87ZM149.142 67.916C147.546 67.916 146.394 69.392 146.394 71.696C146.394 74.012 147.546 75.488 149.142 75.488C150.75 75.488 151.902 74.012 151.902 71.696C151.902 69.392 150.75 67.916 149.142 67.916ZM149.142 68.816C150.21 68.816 150.942 69.944 150.942 71.696C150.942 73.46 150.21 74.612 149.142 74.612C148.086 74.612 147.342 73.46 147.342 71.696C147.342 69.944 148.086 68.816 149.142 68.816ZM159.45 70.76V72.812H160.434V70.76H159.45ZM163.434 70.76V72.812H164.418V70.76H163.434ZM157.026 72.452V73.256H166.83V72.452H157.026ZM161.922 74.072C159.594 74.072 158.201 74.756 158.201 75.992C158.201 77.228 159.594 77.924 161.922 77.924C164.25 77.924 165.642 77.228 165.642 75.992C165.642 74.756 164.25 74.072 161.922 74.072ZM161.922 74.84C163.626 74.84 164.634 75.26 164.634 75.992C164.634 76.736 163.626 77.144 161.922 77.144C160.23 77.144 159.21 76.736 159.21 75.992C159.21 75.26 160.23 74.84 161.922 74.84ZM161.934 67.28C159.57 67.28 158.118 68.036 158.118 69.308C158.118 70.568 159.57 71.312 161.934 71.312C164.286 71.312 165.75 70.568 165.75 69.308C165.75 68.036 164.286 67.28 161.934 67.28ZM161.934 68.06C163.662 68.06 164.73 68.516 164.73 69.308C164.73 70.088 163.662 70.544 161.934 70.544C160.206 70.544 159.138 70.088 159.138 69.308C159.138 68.516 160.206 68.06 161.934 68.06ZM171.452 72.428V73.244H181.256V72.428H171.452ZM175.856 70.688V72.764H176.84V70.688H175.856ZM172.688 70.376V71.192H180.116V70.376H172.688ZM172.688 67.58V70.856H173.672V68.384H180.032V67.58H172.688ZM176.336 74.024C174.02 74.024 172.616 74.732 172.616 75.968C172.616 77.228 174.02 77.924 176.336 77.924C178.652 77.924 180.056 77.228 180.056 75.968C180.056 74.732 178.652 74.024 176.336 74.024ZM176.336 74.792C178.04 74.792 179.048 75.224 179.048 75.968C179.048 76.724 178.04 77.144 176.336 77.144C174.644 77.144 173.624 76.724 173.624 75.968C173.624 75.224 174.644 74.792 176.336 74.792ZM186.007 67.868C184.315 67.868 183.091 68.912 183.091 70.424C183.091 71.948 184.315 72.992 186.007 72.992C187.699 72.992 188.911 71.948 188.911 70.424C188.911 68.912 187.699 67.868 186.007 67.868ZM186.007 68.732C187.123 68.732 187.939 69.416 187.939 70.424C187.939 71.432 187.123 72.128 186.007 72.128C184.879 72.128 184.063 71.432 184.063 70.424C184.063 69.416 184.879 68.732 186.007 68.732ZM190.327 67.076V77.948H191.323V67.076H190.327ZM182.683 75.572C184.615 75.572 187.267 75.56 189.703 75.092L189.619 74.36C187.255 74.732 184.519 74.744 182.539 74.744L182.683 75.572Z" fill="#8B8B8B"/>
<path d="M66.832 48.088V58.936H67.792V48.088H66.832ZM65.08 52.444V53.26H67.156V52.444H65.08ZM62.272 49.48V49.672C62.272 52.18 61.312 54.376 58.588 55.9L59.176 56.608C62.272 54.868 63.232 52.276 63.232 49.48H62.272ZM59.008 49.48V50.308H62.608V49.48H59.008ZM64.42 48.376V58.408H65.368V48.376H64.42ZM77.5231 48.1V56.02H78.5311V48.1H77.5231ZM71.5591 57.88V58.696H78.8551V57.88H71.5591ZM71.5591 55.204V58.156H72.5431V55.204H71.5591ZM72.7111 48.844C71.0911 48.844 69.8791 49.948 69.8791 51.52C69.8791 53.08 71.0911 54.196 72.7111 54.196C74.3311 54.196 75.5311 53.08 75.5311 51.52C75.5311 49.948 74.3311 48.844 72.7111 48.844ZM72.7111 49.708C73.7671 49.708 74.5711 50.452 74.5711 51.52C74.5711 52.576 73.7671 53.32 72.7111 53.32C71.6551 53.32 70.8511 52.576 70.8511 51.52C70.8511 50.452 71.6551 49.708 72.7111 49.708ZM86.4621 50.896V51.724H88.9101V50.896H86.4621ZM88.5981 48.088V54.556H89.5941V48.088H88.5981ZM86.0301 54.88C83.7861 54.88 82.4061 55.636 82.4061 56.908C82.4061 58.192 83.7861 58.924 86.0301 58.924C88.2621 58.924 89.6421 58.192 89.6421 56.908C89.6421 55.636 88.2621 54.88 86.0301 54.88ZM86.0301 55.66C87.6621 55.66 88.6581 56.116 88.6581 56.908C88.6581 57.688 87.6621 58.144 86.0301 58.144C84.3981 58.144 83.4021 57.688 83.4021 56.908C83.4021 56.116 84.3981 55.66 86.0301 55.66ZM83.4381 49.18V50.056C83.4381 51.616 82.3221 53.068 80.7141 53.656L81.2301 54.448C83.0301 53.776 84.2541 52.06 84.2541 50.056V49.18H83.4381ZM83.6301 49.18V50.056C83.6301 51.88 84.7941 53.512 86.5581 54.148L87.0621 53.356C85.4901 52.804 84.4341 51.46 84.4341 50.056V49.18H83.6301ZM81.0141 48.88V49.696H86.8101V48.88H81.0141ZM91.7172 56.728V57.556H101.545V56.728H91.7172ZM96.1092 54.136V56.968H97.1052V54.136H96.1092ZM92.8692 48.856V54.4H100.369V48.856H99.3852V50.788H93.8532V48.856H92.8692ZM93.8532 51.592H99.3852V53.584H93.8532V51.592ZM110.511 48.472V49.072C110.511 50.62 108.603 51.916 106.623 52.216L107.019 53.02C109.275 52.636 111.387 51.148 111.387 49.072V48.472H110.511ZM110.691 48.472V49.072C110.691 51.124 112.815 52.636 115.047 53.02L115.443 52.216C113.487 51.916 111.555 50.584 111.555 49.072V48.472H110.691ZM110.511 54.808V58.936H111.495V54.808H110.511ZM106.131 54.196V55.024H115.935V54.196H106.131ZM120.05 49.024V49.852C120.05 51.328 118.934 52.672 117.302 53.2L117.806 53.992C119.63 53.368 120.878 51.76 120.878 49.852V49.024H120.05ZM120.242 49.024V49.852C120.242 51.688 121.514 53.212 123.314 53.8L123.806 53.02C122.21 52.516 121.07 51.256 121.07 49.852V49.024H120.242ZM117.578 48.796V49.6H123.518V48.796H117.578ZM125.054 48.088V53.956H126.062V48.088H125.054ZM119.066 54.496V58.792H126.062V54.496H125.078V55.78H120.05V54.496H119.066ZM120.05 56.584H125.078V57.976H120.05V56.584ZM132.148 48.784V53.224H137.2V48.784H132.148ZM136.24 49.588V52.432H133.108V49.588H136.24ZM139.468 48.088V54.316H140.464V48.088H139.468ZM136.528 55.6V55.804C136.528 56.884 134.8 57.916 132.916 58.132L133.252 58.9C135.448 58.612 137.38 57.364 137.38 55.804V55.6H136.528ZM136.672 55.6V55.804C136.672 57.328 138.556 58.6 140.764 58.9L141.1 58.132C139.216 57.904 137.536 56.848 137.536 55.804V55.6H136.672ZM133.348 55.048V55.828H140.716V55.048H133.348ZM136.528 54.004V55.396H137.536V54.004H136.528ZM153.87 48.076V58.948H154.866V48.076H153.87ZM149.142 48.916C147.546 48.916 146.394 50.392 146.394 52.696C146.394 55.012 147.546 56.488 149.142 56.488C150.75 56.488 151.902 55.012 151.902 52.696C151.902 50.392 150.75 48.916 149.142 48.916ZM149.142 49.816C150.21 49.816 150.942 50.944 150.942 52.696C150.942 54.46 150.21 55.612 149.142 55.612C148.086 55.612 147.342 54.46 147.342 52.696C147.342 50.944 148.086 49.816 149.142 49.816ZM159.45 51.76V53.812H160.434V51.76H159.45ZM163.434 51.76V53.812H164.418V51.76H163.434ZM157.026 53.452V54.256H166.83V53.452H157.026ZM161.922 55.072C159.594 55.072 158.201 55.756 158.201 56.992C158.201 58.228 159.594 58.924 161.922 58.924C164.25 58.924 165.642 58.228 165.642 56.992C165.642 55.756 164.25 55.072 161.922 55.072ZM161.922 55.84C163.626 55.84 164.634 56.26 164.634 56.992C164.634 57.736 163.626 58.144 161.922 58.144C160.23 58.144 159.21 57.736 159.21 56.992C159.21 56.26 160.23 55.84 161.922 55.84ZM161.934 48.28C159.57 48.28 158.118 49.036 158.118 50.308C158.118 51.568 159.57 52.312 161.934 52.312C164.286 52.312 165.75 51.568 165.75 50.308C165.75 49.036 164.286 48.28 161.934 48.28ZM161.934 49.06C163.662 49.06 164.73 49.516 164.73 50.308C164.73 51.088 163.662 51.544 161.934 51.544C160.206 51.544 159.138 51.088 159.138 50.308C159.138 49.516 160.206 49.06 161.934 49.06ZM171.452 53.428V54.244H181.256V53.428H171.452ZM175.856 51.688V53.764H176.84V51.688H175.856ZM172.688 51.376V52.192H180.116V51.376H172.688ZM172.688 48.58V51.856H173.672V49.384H180.032V48.58H172.688ZM176.336 55.024C174.02 55.024 172.616 55.732 172.616 56.968C172.616 58.228 174.02 58.924 176.336 58.924C178.652 58.924 180.056 58.228 180.056 56.968C180.056 55.732 178.652 55.024 176.336 55.024ZM176.336 55.792C178.04 55.792 179.048 56.224 179.048 56.968C179.048 57.724 178.04 58.144 176.336 58.144C174.644 58.144 173.624 57.724 173.624 56.968C173.624 56.224 174.644 55.792 176.336 55.792ZM186.007 48.868C184.315 48.868 183.091 49.912 183.091 51.424C183.091 52.948 184.315 53.992 186.007 53.992C187.699 53.992 188.911 52.948 188.911 51.424C188.911 49.912 187.699 48.868 186.007 48.868ZM186.007 49.732C187.123 49.732 187.939 50.416 187.939 51.424C187.939 52.432 187.123 53.128 186.007 53.128C184.879 53.128 184.063 52.432 184.063 51.424C184.063 50.416 184.879 49.732 186.007 49.732ZM190.327 48.076V58.948H191.323V48.076H190.327ZM182.683 56.572C184.615 56.572 187.267 56.56 189.703 56.092L189.619 55.36C187.255 55.732 184.519 55.744 182.539 55.744L182.683 56.572Z" fill="#8B8B8B"/>
<path d="M61.24 29.508V30.396C61.24 32.04 60.172 33.432 58.528 34.008L59.02 34.8C60.868 34.128 62.056 32.472 62.056 30.396V29.508H61.24ZM61.42 29.508V30.384C61.42 32.304 62.584 33.828 64.36 34.452L64.888 33.672C63.292 33.156 62.224 31.872 62.224 30.384V29.508H61.42ZM66.016 29.088V34.872H67.012V29.088H66.016ZM66.58 31.464V32.292H68.608V31.464H66.58ZM59.524 35.436V36.192H61.984V37.188H59.548V39.42H60.508V37.92H62.956V35.436H59.524ZM63.604 35.436V39.852H67.012V35.436H63.604ZM66.136 36.18V39.096H64.48V36.18H66.136ZM59.548 39.072V39.84H60.112C61.504 39.84 62.272 39.84 63.28 39.648L63.184 38.88C62.224 39.06 61.48 39.072 60.112 39.072H59.548ZM73.1551 29.868C71.4631 29.868 70.2391 30.912 70.2391 32.424C70.2391 33.948 71.4631 34.992 73.1551 34.992C74.8471 34.992 76.0591 33.948 76.0591 32.424C76.0591 30.912 74.8471 29.868 73.1551 29.868ZM73.1551 30.732C74.2711 30.732 75.0871 31.416 75.0871 32.424C75.0871 33.432 74.2711 34.128 73.1551 34.128C72.0271 34.128 71.2111 33.432 71.2111 32.424C71.2111 31.416 72.0271 30.732 73.1551 30.732ZM77.4751 29.076V39.948H78.4711V29.076H77.4751ZM69.8311 37.572C71.7631 37.572 74.4151 37.56 76.8511 37.092L76.7671 36.36C74.4031 36.732 71.6671 36.744 69.6871 36.744L69.8311 37.572ZM91.9371 29.088V34.704H92.9331V29.088H91.9371ZM85.9251 35.232V36.024H91.9611V37.116H85.9491V39.384H86.9211V37.836H92.9451V35.232H85.9251ZM85.9491 39.024V39.816H93.3051V39.024H85.9491ZM86.9331 30.048V30.612C86.9331 32.088 85.8171 33.42 84.1971 33.948L84.6651 34.728C86.5011 34.116 87.7491 32.532 87.7491 30.612V30.048H86.9331ZM87.1371 30.048V30.612C87.1371 32.436 88.3971 33.936 90.2211 34.5L90.6891 33.732C89.0811 33.24 87.9531 31.992 87.9531 30.612V30.048H87.1371ZM84.4611 29.7V30.504H90.4011V29.7H84.4611ZM106.339 29.076V39.948H107.335V29.076H106.339ZM101.611 29.916C100.015 29.916 98.8632 31.392 98.8632 33.696C98.8632 36.012 100.015 37.488 101.611 37.488C103.219 37.488 104.371 36.012 104.371 33.696C104.371 31.392 103.219 29.916 101.611 29.916ZM101.611 30.816C102.679 30.816 103.411 31.944 103.411 33.696C103.411 35.46 102.679 36.612 101.611 36.612C100.555 36.612 99.8112 35.46 99.8112 33.696C99.8112 31.944 100.555 30.816 101.611 30.816ZM111.918 32.76V34.812H112.902V32.76H111.918ZM115.902 32.76V34.812H116.886V32.76H115.902ZM109.494 34.452V35.256H119.298V34.452H109.494ZM114.39 36.072C112.062 36.072 110.67 36.756 110.67 37.992C110.67 39.228 112.062 39.924 114.39 39.924C116.718 39.924 118.11 39.228 118.11 37.992C118.11 36.756 116.718 36.072 114.39 36.072ZM114.39 36.84C116.094 36.84 117.102 37.26 117.102 37.992C117.102 38.736 116.094 39.144 114.39 39.144C112.698 39.144 111.678 38.736 111.678 37.992C111.678 37.26 112.698 36.84 114.39 36.84ZM114.402 29.28C112.038 29.28 110.586 30.036 110.586 31.308C110.586 32.568 112.038 33.312 114.402 33.312C116.754 33.312 118.218 32.568 118.218 31.308C118.218 30.036 116.754 29.28 114.402 29.28ZM114.402 30.06C116.13 30.06 117.198 30.516 117.198 31.308C117.198 32.088 116.13 32.544 114.402 32.544C112.674 32.544 111.606 32.088 111.606 31.308C111.606 30.516 112.674 30.06 114.402 30.06ZM128.657 30.732V31.572H130.541V30.732H128.657ZM128.657 33.06V33.888H130.541V33.06H128.657ZM127.961 29.088V35.532H128.957V29.088H127.961ZM121.913 36.048V36.852H127.961V39.936H128.957V36.048H121.913ZM123.569 29.724C121.937 29.724 120.737 30.78 120.737 32.304C120.737 33.816 121.937 34.86 123.569 34.86C125.201 34.86 126.401 33.816 126.401 32.304C126.401 30.78 125.201 29.724 123.569 29.724ZM123.569 30.576C124.649 30.576 125.429 31.272 125.429 32.304C125.429 33.324 124.649 34.032 123.569 34.032C122.489 34.032 121.709 33.324 121.709 32.304C121.709 31.272 122.489 30.576 123.569 30.576ZM132.16 29.928V30.744H136.96V29.928H132.16ZM133.792 32.352V35.064H134.776V32.352H133.792ZM136.564 29.928V30.504C136.564 31.2 136.564 32.184 136.288 33.612L137.26 33.72C137.548 32.292 137.548 31.212 137.548 30.504V29.928H136.564ZM139.024 29.088V37.26H140.02V29.088H139.024ZM139.564 32.616V33.444H141.568V32.616H139.564ZM133.168 38.88V39.696H140.368V38.88H133.168ZM133.168 36.504V39.132H134.152V36.504H133.168ZM131.608 35.532C133.516 35.532 136.108 35.484 138.364 35.088L138.292 34.368C136.096 34.668 133.432 34.716 131.5 34.716L131.608 35.532ZM145.998 34.428V35.244H155.802V34.428H145.998ZM150.402 32.688V34.764H151.386V32.688H150.402ZM147.234 32.376V33.192H154.662V32.376H147.234ZM147.234 29.58V32.856H148.218V30.384H154.578V29.58H147.234ZM150.882 36.024C148.566 36.024 147.162 36.732 147.162 37.968C147.162 39.228 148.566 39.924 150.882 39.924C153.198 39.924 154.602 39.228 154.602 37.968C154.602 36.732 153.198 36.024 150.882 36.024ZM150.882 36.792C152.586 36.792 153.594 37.224 153.594 37.968C153.594 38.724 152.586 39.144 150.882 39.144C149.19 39.144 148.17 38.724 148.17 37.968C148.17 37.224 149.19 36.792 150.882 36.792ZM160.554 29.868C158.862 29.868 157.638 30.912 157.638 32.424C157.638 33.948 158.862 34.992 160.554 34.992C162.246 34.992 163.458 33.948 163.458 32.424C163.458 30.912 162.246 29.868 160.554 29.868ZM160.554 30.732C161.67 30.732 162.486 31.416 162.486 32.424C162.486 33.432 161.67 34.128 160.554 34.128C159.426 34.128 158.61 33.432 158.61 32.424C158.61 31.416 159.426 30.732 160.554 30.732ZM164.874 29.076V39.948H165.87V29.076H164.874ZM157.229 37.572C159.162 37.572 161.814 37.56 164.25 37.092L164.166 36.36C161.802 36.732 159.066 36.744 157.086 36.744L157.229 37.572Z" fill="#8B8B8B"/>
<path d="M25.2784 92.3182C25.2784 91.2443 25.4176 90.2571 25.696 89.3565C25.9773 88.4531 26.3778 87.6222 26.8977 86.8636H27.7841C27.5795 87.1449 27.3878 87.4915 27.2088 87.9034C27.0327 88.3125 26.8778 88.7628 26.7443 89.2543C26.6108 89.7429 26.5057 90.2486 26.429 90.7713C26.3551 91.294 26.3182 91.8097 26.3182 92.3182C26.3182 92.9943 26.3835 93.6804 26.5142 94.3764C26.6449 95.0724 26.821 95.7187 27.0426 96.3153C27.2642 96.9119 27.5114 97.3977 27.7841 97.7727H26.8977C26.3778 97.0142 25.9773 96.1847 25.696 95.2841C25.4176 94.3807 25.2784 93.392 25.2784 92.3182ZM36.8437 86.088V91.704H37.8517V86.088H36.8437ZM30.7717 92.232V93.024H36.8557V94.104H30.8077V96.48H31.7797V94.848H37.8517V92.232H30.7717ZM30.8077 96.024V96.816H38.2477V96.024H30.8077ZM29.4277 86.82V87.612H35.2477V86.82H29.4277ZM29.2357 91.344C31.1437 91.332 33.6637 91.26 35.8237 90.936L35.7637 90.204C33.6517 90.468 31.0597 90.516 29.1277 90.516L29.2357 91.344ZM30.4957 87.18V90.876H31.4557V87.18H30.4957ZM33.2077 87.18V90.876H34.1797V87.18H33.2077ZM44.3667 86.472V87.072C44.3667 88.62 42.4587 89.916 40.4787 90.216L40.8747 91.02C43.1307 90.636 45.2427 89.148 45.2427 87.072V86.472H44.3667ZM44.5467 86.472V87.072C44.5467 89.124 46.6707 90.636 48.9027 91.02L49.2987 90.216C47.3427 89.916 45.4107 88.584 45.4107 87.072V86.472H44.5467ZM44.3667 92.808V96.936H45.3507V92.808H44.3667ZM39.9867 92.196V93.024H49.7907V92.196H39.9867ZM53.494 92.3182C53.494 93.392 53.3533 94.3807 53.0721 95.2841C52.7937 96.1847 52.3945 97.0142 51.8746 97.7727H50.9883C51.1928 97.4915 51.3832 97.1449 51.5593 96.733C51.7383 96.3239 51.8945 95.875 52.0281 95.3864C52.1616 94.8949 52.2653 94.3878 52.3391 93.8651C52.4158 93.3395 52.4542 92.8239 52.4542 92.3182C52.4542 91.642 52.3888 90.956 52.2582 90.2599C52.1275 89.5639 51.9513 88.9176 51.7298 88.321C51.5082 87.7244 51.261 87.2386 50.9883 86.8636H51.8746C52.3945 87.6222 52.7937 88.4531 53.0721 89.3565C53.3533 90.2571 53.494 91.2443 53.494 92.3182Z" fill="#8460DA"/>
<path d="M25.2784 73.3182C25.2784 72.2443 25.4176 71.2571 25.696 70.3565C25.9773 69.4531 26.3778 68.6222 26.8977 67.8636H27.7841C27.5795 68.1449 27.3878 68.4915 27.2088 68.9034C27.0327 69.3125 26.8778 69.7628 26.7443 70.2543C26.6108 70.7429 26.5057 71.2486 26.429 71.7713C26.3551 72.294 26.3182 72.8097 26.3182 73.3182C26.3182 73.9943 26.3835 74.6804 26.5142 75.3764C26.6449 76.0724 26.821 76.7187 27.0426 77.3153C27.2642 77.9119 27.5114 78.3977 27.7841 78.7727H26.8977C26.3778 78.0142 25.9773 77.1847 25.696 76.2841C25.4176 75.3807 25.2784 74.392 25.2784 73.3182ZM36.8437 67.088V72.704H37.8517V67.088H36.8437ZM30.7717 73.232V74.024H36.8557V75.104H30.8077V77.48H31.7797V75.848H37.8517V73.232H30.7717ZM30.8077 77.024V77.816H38.2477V77.024H30.8077ZM29.4277 67.82V68.612H35.2477V67.82H29.4277ZM29.2357 72.344C31.1437 72.332 33.6637 72.26 35.8237 71.936L35.7637 71.204C33.6517 71.468 31.0597 71.516 29.1277 71.516L29.2357 72.344ZM30.4957 68.18V71.876H31.4557V68.18H30.4957ZM33.2077 68.18V71.876H34.1797V68.18H33.2077ZM44.3667 67.472V68.072C44.3667 69.62 42.4587 70.916 40.4787 71.216L40.8747 72.02C43.1307 71.636 45.2427 70.148 45.2427 68.072V67.472H44.3667ZM44.5467 67.472V68.072C44.5467 70.124 46.6707 71.636 48.9027 72.02L49.2987 71.216C47.3427 70.916 45.4107 69.584 45.4107 68.072V67.472H44.5467ZM44.3667 73.808V77.936H45.3507V73.808H44.3667ZM39.9867 73.196V74.024H49.7907V73.196H39.9867ZM53.494 73.3182C53.494 74.392 53.3533 75.3807 53.0721 76.2841C52.7937 77.1847 52.3945 78.0142 51.8746 78.7727H50.9883C51.1928 78.4915 51.3832 78.1449 51.5593 77.733C51.7383 77.3239 51.8945 76.875 52.0281 76.3864C52.1616 75.8949 52.2653 75.3878 52.3391 74.8651C52.4158 74.3395 52.4542 73.8239 52.4542 73.3182C52.4542 72.642 52.3888 71.956 52.2582 71.2599C52.1275 70.5639 51.9513 69.9176 51.7298 69.321C51.5082 68.7244 51.261 68.2386 50.9883 67.8636H51.8746C52.3945 68.6222 52.7937 69.4531 53.0721 70.3565C53.3533 71.2571 53.494 72.2443 53.494 73.3182Z" fill="#8460DA"/>
<path d="M25.2784 54.3182C25.2784 53.2443 25.4176 52.2571 25.696 51.3565C25.9773 50.4531 26.3778 49.6222 26.8977 48.8636H27.7841C27.5795 49.1449 27.3878 49.4915 27.2088 49.9034C27.0327 50.3125 26.8778 50.7628 26.7443 51.2543C26.6108 51.7429 26.5057 52.2486 26.429 52.7713C26.3551 53.294 26.3182 53.8097 26.3182 54.3182C26.3182 54.9943 26.3835 55.6804 26.5142 56.3764C26.6449 57.0724 26.821 57.7187 27.0426 58.3153C27.2642 58.9119 27.5114 59.3977 27.7841 59.7727H26.8977C26.3778 59.0142 25.9773 58.1847 25.696 57.2841C25.4176 56.3807 25.2784 55.392 25.2784 54.3182ZM36.8437 48.088V53.704H37.8517V48.088H36.8437ZM30.7717 54.232V55.024H36.8557V56.104H30.8077V58.48H31.7797V56.848H37.8517V54.232H30.7717ZM30.8077 58.024V58.816H38.2477V58.024H30.8077ZM29.4277 48.82V49.612H35.2477V48.82H29.4277ZM29.2357 53.344C31.1437 53.332 33.6637 53.26 35.8237 52.936L35.7637 52.204C33.6517 52.468 31.0597 52.516 29.1277 52.516L29.2357 53.344ZM30.4957 49.18V52.876H31.4557V49.18H30.4957ZM33.2077 49.18V52.876H34.1797V49.18H33.2077ZM44.3667 48.472V49.072C44.3667 50.62 42.4587 51.916 40.4787 52.216L40.8747 53.02C43.1307 52.636 45.2427 51.148 45.2427 49.072V48.472H44.3667ZM44.5467 48.472V49.072C44.5467 51.124 46.6707 52.636 48.9027 53.02L49.2987 52.216C47.3427 51.916 45.4107 50.584 45.4107 49.072V48.472H44.5467ZM44.3667 54.808V58.936H45.3507V54.808H44.3667ZM39.9867 54.196V55.024H49.7907V54.196H39.9867ZM53.494 54.3182C53.494 55.392 53.3533 56.3807 53.0721 57.2841C52.7937 58.1847 52.3945 59.0142 51.8746 59.7727H50.9883C51.1928 59.4915 51.3832 59.1449 51.5593 58.733C51.7383 58.3239 51.8945 57.875 52.0281 57.3864C52.1616 56.8949 52.2653 56.3878 52.3391 55.8651C52.4158 55.3395 52.4542 54.8239 52.4542 54.3182C52.4542 53.642 52.3888 52.956 52.2582 52.2599C52.1275 51.5639 51.9513 50.9176 51.7298 50.321C51.5082 49.7244 51.261 49.2386 50.9883 48.8636H51.8746C52.3945 49.6222 52.7937 50.4531 53.0721 51.3565C53.3533 52.2571 53.494 53.2443 53.494 54.3182Z" fill="#8460DA"/>
<path d="M25.2784 35.3182C25.2784 34.2443 25.4176 33.2571 25.696 32.3565C25.9773 31.4531 26.3778 30.6222 26.8977 29.8636H27.7841C27.5795 30.1449 27.3878 30.4915 27.2088 30.9034C27.0327 31.3125 26.8778 31.7628 26.7443 32.2543C26.6108 32.7429 26.5057 33.2486 26.429 33.7713C26.3551 34.294 26.3182 34.8097 26.3182 35.3182C26.3182 35.9943 26.3835 36.6804 26.5142 37.3764C26.6449 38.0724 26.821 38.7187 27.0426 39.3153C27.2642 39.9119 27.5114 40.3977 27.7841 40.7727H26.8977C26.3778 40.0142 25.9773 39.1847 25.696 38.2841C25.4176 37.3807 25.2784 36.392 25.2784 35.3182ZM36.8437 29.088V34.704H37.8517V29.088H36.8437ZM30.7717 35.232V36.024H36.8557V37.104H30.8077V39.48H31.7797V37.848H37.8517V35.232H30.7717ZM30.8077 39.024V39.816H38.2477V39.024H30.8077ZM29.4277 29.82V30.612H35.2477V29.82H29.4277ZM29.2357 34.344C31.1437 34.332 33.6637 34.26 35.8237 33.936L35.7637 33.204C33.6517 33.468 31.0597 33.516 29.1277 33.516L29.2357 34.344ZM30.4957 30.18V33.876H31.4557V30.18H30.4957ZM33.2077 30.18V33.876H34.1797V30.18H33.2077ZM44.3667 29.472V30.072C44.3667 31.62 42.4587 32.916 40.4787 33.216L40.8747 34.02C43.1307 33.636 45.2427 32.148 45.2427 30.072V29.472H44.3667ZM44.5467 29.472V30.072C44.5467 32.124 46.6707 33.636 48.9027 34.02L49.2987 33.216C47.3427 32.916 45.4107 31.584 45.4107 30.072V29.472H44.5467ZM44.3667 35.808V39.936H45.3507V35.808H44.3667ZM39.9867 35.196V36.024H49.7907V35.196H39.9867ZM53.494 35.3182C53.494 36.392 53.3533 37.3807 53.0721 38.2841C52.7937 39.1847 52.3945 40.0142 51.8746 40.7727H50.9883C51.1928 40.4915 51.3832 40.1449 51.5593 39.733C51.7383 39.3239 51.8945 38.875 52.0281 38.3864C52.1616 37.8949 52.2653 37.3878 52.3391 36.8651C52.4158 36.3395 52.4542 35.8239 52.4542 35.3182C52.4542 34.642 52.3888 33.956 52.2582 33.2599C52.1275 32.5639 51.9513 31.9176 51.7298 31.321C51.5082 30.7244 51.261 30.2386 50.9883 29.8636H51.8746C52.3945 30.6222 52.7937 31.4531 53.0721 32.3565C53.3533 33.2571 53.494 34.2443 53.494 35.3182Z" fill="#8460DA"/>
<rect x="0.5" y="84.5" width="14" height="14" rx="2.5" stroke="#8460DA"/>
<rect x="0.5" y="65.5" width="14" height="14" rx="2.5" stroke="#8460DA"/>
<rect x="0.5" y="46.5" width="14" height="14" rx="2.5" stroke="#8460DA"/>
<rect x="0.5" y="27.5" width="14" height="14" rx="2.5" stroke="#8460DA"/>
<rect x="0.5" y="0.5" width="14" height="14" rx="2.5" stroke="#8460DA"/>
<path d="M21.877 5.499V6.383H24.841V5.499H21.877ZM24.23 2.275V10.881H25.309V2.275H24.23ZM17.808 12.87V13.754H25.634V12.87H17.808ZM17.808 10.127V13.325H18.887V10.127H17.808ZM18.64 3.731V4.68C18.64 6.344 17.431 7.904 15.676 8.528L16.235 9.386C18.198 8.658 19.524 6.812 19.524 4.68V3.731H18.64ZM18.848 3.731V4.667C18.848 6.656 20.109 8.424 22.02 9.113L22.566 8.268C20.863 7.67 19.719 6.188 19.719 4.667V3.731H18.848ZM16.014 3.224V4.095H22.293V3.224H16.014ZM32.393 6.903V7.787H34.616V6.903H32.393ZM30.001 5.265V5.876C30.001 7.8 29.091 9.867 27.505 10.79L28.142 11.609C29.858 10.582 30.833 8.216 30.833 5.876V5.265H30.001ZM30.196 5.265V5.876C30.196 8.164 31.21 10.387 32.939 11.349L33.55 10.543C31.964 9.685 31.028 7.748 31.028 5.876V5.265H30.196ZM27.83 4.42V5.317H33.199V4.42H27.83ZM30.001 2.678V5.109H31.041V2.678H30.001ZM36.54 2.262V14.014H37.58V2.262H36.54ZM34.187 2.535V13.416H35.201V2.535H34.187ZM43.2242 8.047V8.931H53.8452V8.047H43.2242ZM47.9952 6.162V8.411H49.0612V6.162H47.9952ZM44.5632 5.824V6.708H52.6102V5.824H44.5632ZM44.5632 2.795V6.344H45.6292V3.666H52.5192V2.795H44.5632ZM48.5152 9.776C46.0062 9.776 44.4852 10.543 44.4852 11.882C44.4852 13.247 46.0062 14.001 48.5152 14.001C51.0242 14.001 52.5452 13.247 52.5452 11.882C52.5452 10.543 51.0242 9.776 48.5152 9.776ZM48.5152 10.608C50.3612 10.608 51.4532 11.076 51.4532 11.882C51.4532 12.701 50.3612 13.156 48.5152 13.156C46.6822 13.156 45.5772 12.701 45.5772 11.882C45.5772 11.076 46.6822 10.608 48.5152 10.608ZM58.9922 3.107C57.1592 3.107 55.8332 4.238 55.8332 5.876C55.8332 7.527 57.1592 8.658 58.9922 8.658C60.8252 8.658 62.1382 7.527 62.1382 5.876C62.1382 4.238 60.8252 3.107 58.9922 3.107ZM58.9922 4.043C60.2012 4.043 61.0852 4.784 61.0852 5.876C61.0852 6.968 60.2012 7.722 58.9922 7.722C57.7702 7.722 56.8862 6.968 56.8862 5.876C56.8862 4.784 57.7702 4.043 58.9922 4.043ZM63.6722 2.249V14.027H64.7512V2.249H63.6722ZM55.3912 11.453C57.4842 11.453 60.3572 11.44 62.9962 10.933L62.9052 10.14C60.3442 10.543 57.3802 10.556 55.2352 10.556L55.3912 11.453ZM75.0982 2.262V14.014H76.1772V2.262H75.0982ZM75.9172 7.085V7.995H78.1012V7.085H75.9172ZM67.0772 4.134V5.018H74.0062V4.134H67.0772ZM70.5872 5.993C68.9362 5.993 67.7272 7.111 67.7272 8.697C67.7272 10.283 68.9362 11.401 70.5872 11.401C72.2512 11.401 73.4472 10.283 73.4472 8.697C73.4472 7.111 72.2512 5.993 70.5872 5.993ZM70.5872 6.89C71.6532 6.89 72.4202 7.631 72.4202 8.697C72.4202 9.75 71.6532 10.504 70.5872 10.504C69.5212 10.504 68.7542 9.75 68.7542 8.697C68.7542 7.631 69.5212 6.89 70.5872 6.89ZM70.0282 2.405V4.537H71.1072V2.405H70.0282ZM87.6552 2.262V14.014H88.7342V2.262H87.6552ZM84.2102 3.523V3.705C84.2102 6.825 82.6372 9.321 79.2442 10.959L79.8162 11.83C83.7422 9.906 85.2762 6.929 85.2762 3.523H84.2102ZM79.7772 3.523V4.407H84.6782V3.523H79.7772Z" fill="black"/>
</svg>
