<svg width="55" height="56" viewBox="0 0 55 56" fill="none" xmlns="http://www.w3.org/2000/svg">
<rect x="17.736" y="36.051" width="2.41439" height="13.8295" rx="1.20719" transform="rotate(43.048 17.736 36.051)" fill="#8460DA"/>
<rect x="41.9562" y="7.31729" width="6.24316" height="40.4886" rx="0.5" transform="rotate(43.048 41.9562 7.31729)" fill="white" stroke="#8460DA"/>
<rect x="32.0384" y="9.09244" width="18.3151" height="30.1164" rx="2.5" transform="rotate(43.048 32.0384 9.09244)" fill="white" stroke="#8460DA"/>
<rect x="47.8939" y="23.2185" width="3.45738" height="24.1439" rx="1.72869" transform="rotate(133.048 47.8939 23.2185)" fill="#8460DA"/>
<rect x="23.1473" y="28.4895" width="1.15246" height="7.24316" rx="0.57623" transform="rotate(133.048 23.1473 28.4895)" fill="#8460DA"/>
<rect x="27.0807" y="24.2786" width="1.15246" height="7.24316" rx="0.57623" transform="rotate(133.048 27.0807 24.2786)" fill="#8460DA"/>
<rect x="31.014" y="20.0674" width="1.15246" height="7.24316" rx="0.57623" transform="rotate(133.048 31.014 20.0674)" fill="#8460DA"/>
<rect x="50.6586" y="13.1846" width="3.45738" height="14.4863" rx="1.72869" transform="rotate(133.048 50.6586 13.1846)" fill="#8460DA"/>
</svg>
